HIERARCHY
ROOT SimulationBone
{
	OFFSET 0.000000 0.000000 0.000000
	CHANNELS 6 Xposition Yposition Zposition Zrotation Yrotation Xrotation 
	JOINT Hips
	{
		OFFSET 0.000000 0.000000 0.000000
		CHANNELS 6 Xposition Yposition Zposition Zrotation Yrotation Xrotation 
		JOINT LeftUpLeg
		{
			OFFSET 0.103462 1.857827 10.548504
			CHANNELS 3 Zrotation Yrotation Xrotation
			JOINT LeftLeg
			{
				OFFSET 43.500000 -0.000031 0.000000
				CHANNELS 3 Zrotation Yrotation Xrotation
				JOINT LeftFoot
				{
					OFFSET 42.372192 0.000015 0.000000
					CHANNELS 3 Zrotation Yrotation Xrotation
					JOINT LeftToe
					{
						OFFSET 17.300001 0.000000 -0.000009
						CHANNELS 3 Zrotation Yrotation Xrotation
						End Site
						{
							OFFSET 0.000000 0.000000 0.000000
						}
					}
				}
			}
		}
		JOINT RightUpLeg
		{
			OFFSET 0.103456 1.857828 -10.548508
			CHANNELS 3 Zrotation Yrotation Xrotation
			JOINT RightLeg
			{
				OFFSET 43.500046 -0.000015 0.000008
				CHANNELS 3 Zrotation Yrotation Xrotation
				JOINT RightFoot
				{
					OFFSET 42.372261 -0.000015 0.000002
					CHANNELS 3 Zrotation Yrotation Xrotation
					JOINT RightToe
					{
						OFFSET 17.299999 -0.000003 0.000011
						CHANNELS 3 Zrotation Yrotation Xrotation
						End Site
						{
							OFFSET 0.000000 0.000000 0.000000
						}
					}
				}
			}
		}
		JOINT Spine
		{
			OFFSET 6.901966 -2.603728 -0.000009
			CHANNELS 3 Zrotation Yrotation Xrotation
			JOINT Spine1
			{
				OFFSET 12.588099 0.000000 0.000013
				CHANNELS 3 Zrotation Yrotation Xrotation
				JOINT Spine2
				{
					OFFSET 12.343203 0.000005 -0.000004
					CHANNELS 3 Zrotation Yrotation Xrotation
					JOINT Neck
					{
						OFFSET 25.832897 -0.000004 0.000004
						CHANNELS 3 Zrotation Yrotation Xrotation
						JOINT Head
						{
							OFFSET 11.766615 0.000003 -0.000003
							CHANNELS 3 Zrotation Yrotation Xrotation
							End Site
							{
								OFFSET 0.000000 0.000000 0.000000
							}
						}
					}
					JOINT LeftShoulder
					{
						OFFSET 19.745903 -1.480370 6.000102
						CHANNELS 3 Zrotation Yrotation Xrotation
						JOINT LeftArm
						{
							OFFSET 11.284127 -0.000006 -0.000019
							CHANNELS 3 Zrotation Yrotation Xrotation
							JOINT LeftForeArm
							{
								OFFSET 33.000042 0.000001 0.000035
								CHANNELS 3 Zrotation Yrotation Xrotation
								JOINT LeftHand
								{
									OFFSET 25.200005 0.000015 0.000003
									CHANNELS 3 Zrotation Yrotation Xrotation
									End Site
									{
										OFFSET 0.000000 0.000000 0.000000
									}
								}
							}
						}
					}
					JOINT RightShoulder
					{
						OFFSET 19.746101 -1.480375 -6.000084
						CHANNELS 3 Zrotation Yrotation Xrotation
						JOINT RightArm
						{
							OFFSET 11.284132 -0.000016 -0.000012
							CHANNELS 3 Zrotation Yrotation Xrotation
							JOINT RightForeArm
							{
								OFFSET 33.000092 0.000018 0.000010
								CHANNELS 3 Zrotation Yrotation Xrotation
								JOINT RightHand
								{
									OFFSET 25.199774 0.000137 0.000425
									CHANNELS 3 Zrotation Yrotation Xrotation
									End Site
									{
										OFFSET 0.000000 0.000000 0.000000
									}
								}
							}
						}
					}
				}
			}
		}
	}
}
MOTION
Frames: 9
Frame Time: 0.016667
31.244757 0.000000 -73.992601 180.000000 43.423978 180.000000 -11.860594 76.530373 3.304661 80.315850 9.853019 -176.612082 126.535824 -7.021606 173.392917 -109.220304 3.618168 -7.572731 84.214620 3.400599 -8.272611 21.454555 0.003093 0.000003 140.120729 0.997190 -172.927904 -71.323389 0.011808 -0.734196 101.867510 0.922881 7.064901 21.454555 -0.003105 -0.000018 15.472812 1.268201 0.909297 20.958244 2.350560 2.033696 20.640067 2.362917 2.019483 -4.452999 1.697593 -6.936265 -32.782083 3.508613 -8.701942 141.113276 -74.171609 38.244347 -18.515344 53.776184 9.336174 -40.446692 -17.794658 1.651961 -7.965499 -21.407145 27.402108 158.664978 77.229497 -20.255108 -46.692723 -41.826715 30.597863 -93.243822 5.093429 -2.848094 -25.237341 19.093428 -41.396249 
26.120090 0.000000 -76.502090 180.000000 42.692022 180.000000 -12.590529 77.812203 3.736605 80.095244 8.724228 -177.047811 122.163038 -6.774218 173.080583 -103.962337 3.275070 -7.667694 83.976953 3.404126 -8.597846 21.454556 0.003094 0.000000 145.224516 1.729183 -174.120026 -68.196114 -0.201406 -0.626222 102.146401 0.905159 8.175050 21.454554 -0.003107 -0.000019 15.420198 0.958521 0.895246 20.844950 1.739927 1.948714 20.526883 1.751782 1.938188 -4.041047 1.293962 -7.336951 -32.640310 3.918343 -9.431386 142.922388 -74.736919 36.367292 -15.829223 54.524274 13.784332 -38.377255 -16.798449 1.527798 -8.491479 -19.742946 28.899088 156.308488 77.870829 -22.617797 -47.393581 -42.203214 32.350295 -96.536740 3.139921 -2.878482 -24.824217 17.766811 -39.684905 
21.100444 0.000000 -78.973432 180.000000 41.956530 180.000000 -13.210549 79.153923 4.054627 79.601584 8.021084 -177.418777 118.585170 -6.780110 173.803685 -97.273743 2.137682 -7.880949 83.182339 3.509129 -8.943175 21.454551 0.003092 -0.000001 150.048709 2.059291 -175.605038 -64.424222 0.180430 -0.012771 100.416696 0.613381 8.729668 21.454557 -0.003109 -0.000018 15.296851 0.701332 0.933028 20.592701 1.225266 1.976056 20.274730 1.237299 1.968637 -3.990695 1.168658 -7.603412 -32.318856 4.548100 -10.052092 144.075324 -75.033230 35.175960 -13.036376 55.096689 18.470835 -36.396318 -16.008684 1.433111 -8.418259 -18.912340 29.263323 157.064528 78.208304 -21.832891 -47.553460 -42.717877 32.251445 -98.964270 2.113754 -2.895901 -24.720728 17.484075 -38.735323 
16.180144 0.000000 -81.407759 180.000000 41.218948 180.000000 -13.719492 80.522144 4.261642 78.938463 7.510706 -177.749494 115.928732 -6.824476 174.870924 -89.341123 0.624842 -8.386142 82.296910 3.805072 -9.261238 21.454544 0.003090 -0.000001 154.611027 2.372064 -177.098325 -60.297151 0.865951 0.798441 97.065186 0.283831 8.848170 21.454560 -0.003110 -0.000017 15.123780 0.467467 0.992769 20.241927 0.753903 2.052006 19.924035 0.766409 2.047433 -4.046645 1.184998 -7.786056 -31.981920 5.247227 -10.581395 144.713960 -75.236645 34.513621 -10.205755 55.585605 23.144114 -34.620730 -15.225577 1.343812 -8.025665 -18.589964 28.844926 159.690679 78.308856 -19.161265 -47.112498 -43.471962 30.955995 -100.642514 1.685381 -2.934144 -24.787330 17.583431 -38.445213 
11.353514 0.000000 -83.806202 180.000000 40.480748 180.000000 -14.116165 81.883476 4.360600 78.218879 6.964376 -178.064181 114.329682 -6.787594 175.569575 -80.313086 -0.813960 -9.272287 81.786460 4.387979 -9.504314 21.454541 0.003089 -0.000001 158.913941 2.999607 -178.254509 -56.114101 1.612897 1.465686 92.474388 0.118736 8.632072 21.454562 -0.003108 -0.000017 14.922244 0.227633 1.044496 19.834212 0.272700 2.112473 19.516364 0.285582 2.110805 -3.951746 1.209002 -7.937119 -31.791173 5.861776 -11.041334 145.056399 -75.515811 34.147367 -7.375062 56.100160 27.582123 -33.171544 -14.248722 1.246083 -7.557803 -18.438972 27.969917 162.652074 78.232093 -16.156216 -45.999667 -44.541411 29.103787 -101.683703 1.527129 -2.976361 -24.916879 17.394718 -38.727636 
6.614880 0.000000 -86.169891 180.000000 39.743427 180.000000 -14.379486 83.192604 4.355479 77.552734 6.275660 -178.417358 113.874354 -6.672841 175.302791 -70.344273 -1.704961 -10.400913 81.940651 5.215054 -9.650299 21.454545 0.003091 -0.000001 162.977477 4.081853 -178.770331 -52.151252 2.269225 1.712986 87.119445 0.251419 8.235259 21.454561 -0.003104 -0.000018 14.709405 -0.029810 1.078343 19.403766 -0.240195 2.136289 19.085913 -0.227161 2.137718 -3.572003 1.094287 -8.099204 -31.771109 6.288914 -11.464379 145.462068 -75.954232 33.706702 -4.515873 56.680610 31.691711 -32.154573 -12.999981 1.140647 -7.238743 -18.197292 26.962789 164.824683 78.057713 -13.955025 -44.161158 -45.915834 27.121152 -102.173511 1.387737 -2.990369 -24.996730 16.510008 -39.428716 
1.958567 0.000000 -88.499958 180.000000 39.008504 180.000000 -14.408952 84.356506 4.256319 77.002133 5.813674 -178.998771 114.433692 -6.805498 173.961394 -59.720660 -1.627807 -11.075574 82.339651 5.671069 -9.816480 21.454551 0.003093 -0.000001 166.913854 5.170397 -178.700001 -48.548164 2.830983 1.656688 81.898455 0.624097 8.164701 21.454562 -0.003100 -0.000019 14.485178 -0.244882 1.164643 18.951104 -0.677365 2.273336 18.633250 -0.663500 2.277403 -3.268520 0.639123 -8.276897 -31.403351 6.641100 -11.907048 146.759903 -76.304314 32.366395 -1.509264 57.034004 35.726164 -31.603155 -11.891412 1.060772 -7.220723 -17.885166 26.143142 166.714603 77.764000 -12.044092 -41.647313 -47.249277 24.648328 -102.100105 1.313207 -2.979990 -24.917653 15.580201 -40.142544 
-2.621100 0.000000 -90.797533 180.000000 38.277508 180.000000 -14.135141 85.275731 4.087243 76.594116 5.915881 -179.959622 115.799986 -7.417398 171.783683 -48.846191 -0.643685 -10.583113 82.520704 5.204701 -10.206950 21.454553 0.003093 -0.000001 170.768261 5.809447 -178.270284 -45.507998 3.238115 1.466076 77.674949 1.210058 8.799898 21.454566 -0.003099 -0.000017 14.245532 -0.361925 1.363917 18.467957 -0.937085 2.652478 18.150181 -0.920930 2.658106 -3.312321 -0.241097 -8.451618 -30.323905 7.036623 -12.385873 149.412084 -76.297618 29.673045 1.722839 56.874624 39.874302 -31.552545 -11.372656 1.031055 -7.702802 -17.543122 25.969901 168.861460 77.301057 -9.875226 -38.570827 -48.202751 21.361146 -101.450492 1.391890 -2.956273 -24.602152 15.264617 -40.526084 
-7.129796 0.000000 -93.063748 180.000000 37.551981 180.000000 -13.692107 85.872833 3.903341 76.328966 6.323139 178.872067 117.571911 -8.216598 169.968670 -38.588737 0.199368 -9.251169 82.568332 4.098216 -11.160430 21.454553 0.003093 -0.000001 174.243972 6.026905 -177.828579 -43.637135 3.171594 1.108377 74.716866 1.930019 9.580034 21.454568 -0.003101 -0.000015 13.989280 -0.416435 1.618946 17.951590 -1.079252 3.153569 17.633962 -1.060070 3.160042 -3.124962 -1.096866 -8.568234 -29.322530 7.364447 -12.763665 152.011773 -75.999230 27.047993 5.454400 56.342567 44.162674 -32.134864 -11.550342 1.049404 -9.157925 -16.982104 27.470132 170.673189 76.710792 -8.048488 -35.047796 -48.897829 17.684182 -100.303888 1.586897 -2.918991 -23.979824 15.191599 -40.698323 
